<?xml version="1.0" encoding="UTF-8" standalone="no"?>
<svg
   xmlns:dc="http://purl.org/dc/elements/1.1/"
   xmlns:cc="http://creativecommons.org/ns#"
   xmlns:rdf="http://www.w3.org/1999/02/22-rdf-syntax-ns#"
   xmlns:svg="http://www.w3.org/2000/svg"
   xmlns="http://www.w3.org/2000/svg"
   viewBox="0 0 816 1056"
   height="1056"
   width="816"
   xml:space="preserve"
   id="svg2"
   version="1.1"><metadata
     id="metadata8"><rdf:RDF><cc:Work
         rdf:about=""><dc:format>image/svg+xml</dc:format><dc:type
           rdf:resource="http://purl.org/dc/dcmitype/StillImage" /></cc:Work></rdf:RDF></metadata><defs
     id="defs6" /><g
     transform="matrix(1.3333333,0,0,1.3333333,0,2.64e-5)"
     id="g10"><g
       transform="scale(0.75)"
       id="g12"><path
         id="path14"
         style="fill:#ffffff;fill-opacity:1;fill-rule:nonzero;stroke:none"
         d="M 0,0 H 816 V 1056 H 0 Z" /></g><g
       transform="matrix(0.75,0,0,0.75,72,72)"
       id="g16"><text
         id="text20"
         style="font-variant:normal;font-weight:bold;font-size:16px;font-family:TimesNewRomanPS;-inkscape-font-specification:TimesNewRomanPS-BoldMT;writing-mode:lr-tb;fill:#000000;fill-opacity:1;fill-rule:nonzero;stroke:none"
         transform="translate(242.30078,14.9375)"><tspan
           id="tspan18"
           y="0"
           x="0 15.101562 23.101562 31.101562 35.101562 45.773438 50.21875 57.320312 66.21875 71.546875 78.648438 84.28125 88.28125 92.28125 101.17969 108.28125 112.72656 121.625 126.07031">Max Lichter, he/him</tspan></text>
</g><g
       transform="matrix(0.75,0,0,0.75,72,87.868652)"
       id="g22"><text
         id="text26"
         style="font-variant:normal;font-weight:normal;font-size:13.33333302px;font-family:TimesNewRomanPSMT;-inkscape-font-specification:TimesNewRomanPSMT;writing-mode:lr-tb;fill:#1155cc;fill-opacity:1;fill-rule:nonzero;stroke:none"
         transform="translate(172.06122,12.447917)"><tspan
           id="tspan24"
           y="0"
           x="0 3.7029877 9.6186523 19.985703 30.352753 36.268417 42.93248 46.635468 50.338455 56.25412 62.918182 66.62117 72.536835 76.975204 89.249054 95.913116 106.28017 112.19583 115.89882 119.60181 122.93384 128.8495 135.51357">iammaxlichter@gmail.com</tspan></text>
<text
         id="text30"
         style="font-variant:normal;font-weight:normal;font-size:13.33333302px;font-family:TimesNewRomanPSMT;-inkscape-font-specification:TimesNewRomanPSMT;writing-mode:lr-tb;fill:#000000;fill-opacity:1;fill-rule:nonzero;stroke:none"
         transform="translate(317.94183,12.447917)"><tspan
           id="tspan28"
           y="0"
           x="0">,</tspan></text>
<text
         id="text34"
         style="font-variant:normal;font-weight:normal;font-size:13.33333302px;font-family:TimesNewRomanPSMT;-inkscape-font-specification:TimesNewRomanPSMT;writing-mode:lr-tb;fill:#1155cc;fill-opacity:1;fill-rule:nonzero;stroke:none"
         transform="translate(324.6059,12.447917)"><tspan
           id="tspan32"
           y="0"
           x="0 3.7029877 9.6186523 19.985703 30.352753 36.268417 42.93248 46.635468 50.338455 56.25412 62.918182 66.62117 72.536835 76.239532 79.571564 86.235626 89.938614 93.641602 100.30566 106.96973 113.63379 116.96582 120.66881">iammaxlichter.github.io</tspan></text>
</g><g
       transform="matrix(0.75,0,0,0.75,72,101.09253)"
       id="g36"><text
         id="text40"
         style="font-variant:normal;font-weight:normal;font-size:13.33333302px;font-family:TimesNewRomanPSMT;-inkscape-font-specification:TimesNewRomanPSMT;writing-mode:lr-tb;fill:#000000;fill-opacity:1;fill-rule:nonzero;stroke:none"
         transform="translate(202.10477,12.447917)"><tspan
           id="tspan38"
           y="0"
           x="0 8.8897552 12.592743 18.508408 25.17247 31.088135 35.526505 42.190567 47.37735 54.041412 60.705475 64.037506 67.128647 75.270004 84.895157 88.227188 94.891251 101.55531 108.21938 114.88344 121.5475 124.87953 132.92978 139.59384 144.03221 150.69627 157.36034 164.0244 168.46277 175.12683 181.79089 188.45496 192.89333 199.55739 206.22145 212.88551">Richardson, TX 75081 ● (832)406-1926</tspan></text>
</g><g
       transform="matrix(0.75,0,0,0.75,72,114.31641)"
       id="g42"><text
         id="text46"
         style="font-variant:normal;font-weight:bold;font-size:14.66666698px;font-family:TimesNewRomanPS;-inkscape-font-specification:TimesNewRomanPS-BoldMT;writing-mode:lr-tb;fill:#000000;fill-opacity:1;fill-rule:nonzero;stroke:none"
         transform="translate(-48,13.692708)"><tspan
           id="tspan44"
           y="0"
           x="0 9.7756042 20.359879 30.944153 41.528427 51.024155 60.799759 66.503387 77.903488">EDUCATION</tspan></text>
</g><g
       transform="matrix(0.75,0,0,0.75,72,126.96533)"
       id="g48"><text
         id="text52"
         style="font-variant:normal;font-size:8px;font-family:MS;-inkscape-font-specification:MS-PMincho;writing-mode:lr-tb;fill:#000000;fill-opacity:1;fill-rule:nonzero;stroke:none"
         transform="translate(-48,7.46875)"><tspan
           id="tspan50"
           y="0"
           x="0 8 16 24 32 40 48 56 64 72 80 88 96 104 112 120 128 136 144 152 160 168 176 184 192 200 208 216 224 232 240 248 256 264 272 280 288 296 304 312 320 328 336 344 352 360 368 376 384 392 400 408 416 424 432 440 448 456 464 472 480 488 496 504 512 520 528 536 544 552 560 568 576 584 592 600 608 616 624 632 640 648 656 664 672 680 688 696 704 712">￣￣￣￣￣￣￣￣￣￣￣￣￣￣￣￣￣￣￣￣￣￣￣￣￣￣￣￣￣￣￣￣￣￣￣￣￣￣￣￣￣￣￣￣￣￣￣￣￣￣￣￣￣￣￣￣￣￣￣￣￣￣￣￣￣￣￣￣￣￣￣￣￣￣￣￣￣￣￣￣￣￣￣￣￣￣￣￣￣￣</tspan></text>
</g><g
       transform="matrix(0.75,0,0,0.75,72,133.86475)"
       id="g54"><text
         id="text58"
         style="font-variant:normal;font-weight:bold;font-size:13.33333302px;font-family:TimesNewRomanPS;-inkscape-font-specification:TimesNewRomanPS-BoldMT;writing-mode:lr-tb;fill:#000000;fill-opacity:1;fill-rule:nonzero;stroke:none"
         transform="translate(-48,12.447917)"><tspan
           id="tspan56"
           y="0"
           x="0 8.8897552 16.302231 22.217896 25.549927 35.175079 42.587555 46.290543 52.954605 58.87027 64.785934 69.972717 73.675705 78.114075 84.778137 88.110168 98.477219 102.91559 106.00673 113.67253 119.5882 126.25226 132.91632 138.1031 141.43513 148.0992 152.53757 155.8696 165.49475 172.15881 175.8618 179.56479 186.22885">The University Of Texas at Dallas</tspan></text>
<text
         id="text62"
         style="font-variant:normal;font-weight:normal;font-size:13.33333302px;font-family:TimesNewRomanPSMT;-inkscape-font-specification:TimesNewRomanPSMT;writing-mode:lr-tb;fill:#000000;fill-opacity:1;fill-rule:nonzero;stroke:none"
         transform="translate(192,12.447917)"><tspan
           id="tspan60"
           y="0"
           x="0 8.8897552 14.80542 20.721085 27.385147 33.300812 37.003799 43.667862 48.106232 51.438263 58.102325 62.540695 65.872726 74.762482 81.426544 91.793594 98.457657 105.12172 108.82471 114.74037">Bachelor of Computer</tspan></text>
<text
         id="text66"
         style="font-variant:normal;font-weight:normal;font-size:13.33333302px;font-family:TimesNewRomanPSMT;-inkscape-font-specification:TimesNewRomanPSMT;writing-mode:lr-tb;fill:#000000;fill-opacity:1;fill-rule:nonzero;stroke:none"
         transform="translate(314.51077,12.447917)"><tspan
           id="tspan64"
           y="0"
           x="0 7.4124756 13.32814 17.031128 22.946793 29.610855 35.52652">Science</tspan></text>
<text
         id="text70"
         style="font-style:italic;font-variant:normal;font-size:13.33333302px;font-family:TimesNewRomanPS;-inkscape-font-specification:TimesNewRomanPS-ItalicMT;writing-mode:lr-tb;fill:#000000;fill-opacity:1;fill-rule:nonzero;stroke:none"
         transform="translate(554.65625,12.447917)"><tspan
           id="tspan68"
           y="0"
           x="0 4.4383698 12.579727 18.495392 25.159454 31.075119 36.990784 40.693771 46.609436 53.273499 56.60553 67.707962 74.372025 80.287689 83.61972 90.283783 96.947845 103.61191 110.27597">(Expected May 2024)</tspan></text>
</g><g
       transform="matrix(0.75,0,0,0.75,72,145.36377)"
       id="g72"><text
         id="text76"
         style="font-variant:normal;font-weight:normal;font-size:13.33333302px;font-family:TimesNewRomanPSMT;-inkscape-font-specification:TimesNewRomanPSMT;writing-mode:lr-tb;fill:#000000;fill-opacity:1;fill-rule:nonzero;stroke:none"
         transform="translate(192,13.757161)"><tspan
           id="tspan74"
           y="0"
           x="0 9.6251526 15.813675 25.438828 29.141815 32.473846 39.137909 42.46994 49.134003 55.798065">GPA: 3.516</tspan></text>
</g><g
       transform="matrix(0.75,0,0,0.75,72,161.17493)"
       id="g78"><text
         id="text82"
         style="font-variant:normal;font-weight:bold;font-size:14.66666698px;font-family:TimesNewRomanPS;-inkscape-font-specification:TimesNewRomanPS-BoldMT;writing-mode:lr-tb;fill:#000000;fill-opacity:1;fill-rule:nonzero;stroke:none"
         transform="translate(-48,13.692708)"><tspan
           id="tspan80"
           y="0"
           x="0 8.1511078 19.551208 25.254837 35.030441 44.806046">SKILLS</tspan></text>
</g><g
       transform="matrix(0.75,0,0,0.75,72,173.82385)"
       id="g84"><text
         id="text88"
         style="font-variant:normal;font-size:9.33333302px;font-family:MS;-inkscape-font-specification:MS-PMincho;writing-mode:lr-tb;fill:#000000;fill-opacity:1;fill-rule:nonzero;stroke:none"
         transform="translate(-48,8.713542)"><tspan
           id="tspan86"
           y="0"
           x="0 9 18 27 36 45 54 63 72 81 90 99 108 117 126 135 144 153 162 171 180 189 198 207 216 225 234 243 252 261 270 279 288 297 306 315 324 333 342 351 360 369 378 387 396 405 414 423 432 441 450 459 468 477 486 495 504 513 522 531 540 549 558 567 576 585 594 603 612 621 630 639 648 657 666 675 684 693 702 711">￣￣￣￣￣￣￣￣￣￣￣￣￣￣￣￣￣￣￣￣￣￣￣￣￣￣￣￣￣￣￣￣￣￣￣￣￣￣￣￣￣￣￣￣￣￣￣￣￣￣￣￣￣￣￣￣￣￣￣￣￣￣￣￣￣￣￣￣￣￣￣￣￣￣￣￣￣￣￣￣</tspan></text>
</g><g
       transform="matrix(0.75,0,0,0.75,72,181.87317)"
       id="g90"><text
         id="text94"
         style="font-variant:normal;font-weight:bold;font-size:13.33333302px;font-family:TimesNewRomanPS;-inkscape-font-specification:TimesNewRomanPS-BoldMT;writing-mode:lr-tb;fill:#000000;fill-opacity:1;fill-rule:nonzero;stroke:none"
         transform="translate(-48,12.447917)"><tspan
           id="tspan92"
           y="0"
           x="0 8.1413574 13.816132 20.480194 27.144257 33.059921 39.723984 50.826416 61.928848 65.631836 73.044312 79.708374 83.040405 91.930161 98.594223 106.0067 112.67076 120.08324 126.7473 133.41136 139.32703 144.51381">Programming Languages:</tspan></text>
<text
         id="text98"
         style="font-variant:normal;font-weight:normal;font-size:13.33333302px;font-family:TimesNewRomanPSMT;-inkscape-font-specification:TimesNewRomanPSMT;writing-mode:lr-tb;fill:#000000;fill-opacity:1;fill-rule:nonzero;stroke:none"
         transform="translate(192,12.447917)"><tspan
           id="tspan96"
           y="0"
           x="0 7.4124756 11.115463 17.779526 23.69519 30.359253 34.062241 37.394272 41.09726 47.761322 51.093353 56.280136 62.195801 68.859863 74.775528 78.107559 81.43959 86.626373 92.542038 99.2061 105.12177 112.53424 118.44991 122.88828 126.59126 133.25533 136.95831">Fluent in Java, JavaScript,</tspan></text>
<text
         id="text102"
         style="font-variant:normal;font-weight:normal;font-size:13.33333302px;font-family:TimesNewRomanPSMT;-inkscape-font-specification:TimesNewRomanPSMT;writing-mode:lr-tb;fill:#000000;fill-opacity:1;fill-rule:nonzero;stroke:none"
         transform="translate(335.62238,12.447917)"><tspan
           id="tspan100"
           y="0"
           x="0 7.4124756 11.115463 17.779526 21.482513 25.185501 31.101166 35.005676 38.337708 41.669739 51.294891 57.210556 61.648926 65.351913 68.683945 75.348007 84.97316 93.114517 104.96536 113.10672 116.43875 119.77078 128.66054 136.07301 143.48549 146.81752 150.14955 159.03931 166.55591 174.07251 177.40454 180.73657 186.65224 193.3163 199.98036 203.31239 210.72487 217.38893 221.09192 227.75598 234.42004 241.08411 244.41614 251.0802 254.41223 261.07629">Flutter, Dart, HTML, CSS, C++, and Python 3.0.</tspan></text>
</g><g
       transform="matrix(0.75,0,0,0.75,72,194.52209)"
       id="g104"><text
         id="text108"
         style="font-variant:normal;font-weight:bold;font-size:13.33333302px;font-family:TimesNewRomanPS;-inkscape-font-specification:TimesNewRomanPS-BoldMT;writing-mode:lr-tb;fill:#000000;fill-opacity:1;fill-rule:nonzero;stroke:none"
         transform="translate(-48,12.447917)"><tspan
           id="tspan106"
           y="0"
           x="0 9.6251526 16.289215 27.391647 34.804123 42.216599 46.654968 52.570633 58.245407 61.336548 69.00235 75.666412 82.330475 86.033463 91.220245">Computer Tools:</tspan></text>
<text
         id="text112"
         style="font-variant:normal;font-weight:normal;font-size:13.33333302px;font-family:TimesNewRomanPSMT;-inkscape-font-specification:TimesNewRomanPSMT;writing-mode:lr-tb;fill:#000000;fill-opacity:1;fill-rule:nonzero;stroke:none"
         transform="translate(192,12.447917)"><tspan
           id="tspan110"
           y="0"
           x="0 7.4124756 11.115463 17.779526 28.146576 34.062241 37.394272 40.726303 50.351456 54.054443 57.757431 67.382584 74.046646 80.710709 84.04274 86.639099 96.264252 102.92831 109.59238 116.25644 122.1721 125.50414 132.91661 139.58067 146.24474 149.94772 156.61179 161.79857 168.46263 175.12669 181.79076">Figma, GitHub, Adobe Photoshop,</tspan></text>
<text
         id="text116"
         style="font-variant:normal;font-weight:normal;font-size:13.33333302px;font-family:TimesNewRomanPSMT;-inkscape-font-specification:TimesNewRomanPSMT;writing-mode:lr-tb;fill:#000000;fill-opacity:1;fill-rule:nonzero;stroke:none"
         transform="translate(381.19049,12.447917)"><tspan
           id="tspan114"
           y="0"
           x="0 5.9156647 12.579727 19.24379 22.575821 34.426666 38.129654 44.045319 48.483688 55.147751 60.334534 66.998596 71.436966 75.139954 78.471985 86.613342 93.277405 99.193069 105.10873 108.81172">and Microsoft Excel.</tspan></text>
</g><g
       transform="matrix(0.75,0,0,0.75,72,207.17102)"
       id="g118"><text
         id="text122"
         style="font-variant:normal;font-weight:bold;font-size:13.33333302px;font-family:TimesNewRomanPS;-inkscape-font-specification:TimesNewRomanPS-BoldMT;writing-mode:lr-tb;fill:#000000;fill-opacity:1;fill-rule:nonzero;stroke:none"
         transform="translate(-48,12.447917)"><tspan
           id="tspan120"
           y="0"
           x="0 8.1413574 14.057022 19.972687 25.15947 31.823532 39.236008 45.90007 49.603058 52.935089 60.347565 67.76004 71.463028 75.166016 78.869003 84.055786">Personal Skills:</tspan></text>
<text
         id="text126"
         style="font-variant:normal;font-weight:normal;font-size:13.33333302px;font-family:TimesNewRomanPSMT;-inkscape-font-specification:TimesNewRomanPSMT;writing-mode:lr-tb;fill:#000000;fill-opacity:1;fill-rule:nonzero;stroke:none"
         transform="translate(192,12.447917)"><tspan
           id="tspan124"
           y="0"
           x="0 7.2103729 13.126038 19.041702 29.408752 32.740784 40.882141 46.797806 52.71347 59.377533 65.293198 69.197708 72.529739 75.861771 84.751526 89.189896 95.10556 101.02122 104.72421 108.4272 115.09126 121.00693 124.33896 131.75143 136.1898 142.85387 149.51793 153.22092 159.13658 169.50363 173.942 181.35448 188.01854 191.72153 198.38559 204.30125 208.20576">Team Leader, Creative Problem-Solver,</tspan></text>
<text
         id="text130"
         style="font-variant:normal;font-weight:normal;font-size:13.33333302px;font-family:TimesNewRomanPSMT;-inkscape-font-specification:TimesNewRomanPSMT;writing-mode:lr-tb;fill:#000000;fill-opacity:1;fill-rule:nonzero;stroke:none"
         transform="translate(406.86981,12.447917)"><tspan
           id="tspan128"
           y="0"
           x="0 4.4383698 11.102432 14.80542 20.721085 27.385147 31.823517 35.526505 39.229492 45.027664 48.359695 50.956055 60.581207 67.24527 73.160934 79.824997 83.527985 89.443649 96.107712 99.810699 103.51369 107.21667 110.91966 116.71783 120.04987 123.3819 127.82027 134.48433 141.14839 147.81245 154.47652 160.39218 164.09517 167.79816 174.46222 180.37788">Integrity, Adaptability, Innovative.</tspan></text>
</g><g
       transform="matrix(0.75,0,0,0.75,72,226.71936)"
       id="g132"><text
         id="text136"
         style="font-variant:normal;font-weight:bold;font-size:14.66666698px;font-family:TimesNewRomanPS;-inkscape-font-specification:TimesNewRomanPS-BoldMT;writing-mode:lr-tb;fill:#000000;fill-opacity:1;fill-rule:nonzero;stroke:none"
         transform="translate(-48,13.692708)"><tspan
           id="tspan134"
           y="0"
           x="0 8.9526215 18.728226 29.3125 37.463608 48.863708 59.447983 70.032257 78.998611 82.662674 91.615295 102.19957 113.59967 120.9278 130.7034 141.28767 151.06328">PERSONAL PROJECTS</tspan></text>
</g><g
       transform="matrix(0.75,0,0,0.75,72,239.36829)"
       id="g138"><text
         id="text142"
         style="font-variant:normal;font-size:9.33333302px;font-family:MS;-inkscape-font-specification:MS-PMincho;writing-mode:lr-tb;fill:#000000;fill-opacity:1;fill-rule:nonzero;stroke:none"
         transform="translate(-48,8.713542)"><tspan
           id="tspan140"
           y="0"
           x="0 9 18 27 36 45 54 63 72 81 90 99 108 117 126 135 144 153 162 171 180 189 198 207 216 225 234 243 252 261 270 279 288 297 306 315 324 333 342 351 360 369 378 387 396 405 414 423 432 441 450 459 468 477 486 495 504 513 522 531 540 549 558 567 576 585 594 603 612 621 630 639 648 657 666 675 684 693 702 711">￣￣￣￣￣￣￣￣￣￣￣￣￣￣￣￣￣￣￣￣￣￣￣￣￣￣￣￣￣￣￣￣￣￣￣￣￣￣￣￣￣￣￣￣￣￣￣￣￣￣￣￣￣￣￣￣￣￣￣￣￣￣￣￣￣￣￣￣￣￣￣￣￣￣￣￣￣￣￣￣</tspan></text>
</g><g
       transform="matrix(0.75,0,0,0.75,72,247.4176)"
       id="g144"><text
         id="text148"
         style="font-variant:normal;font-weight:bold;font-size:13.33333302px;font-family:TimesNewRomanPS;-inkscape-font-specification:TimesNewRomanPS-BoldMT;writing-mode:lr-tb;fill:#000000;fill-opacity:1;fill-rule:nonzero;stroke:none"
         transform="translate(-48,12.447917)"><tspan
           id="tspan146"
           y="0"
           x="0 12.579727 19.24379 31.823517 39.235992 44.422775 50.33844 53.670471">MyMuse -</tspan></text>
<text
         id="text152"
         style="font-style:italic;font-variant:normal;font-size:13.33333302px;font-family:TimesNewRomanPS;-inkscape-font-specification:TimesNewRomanPS-ItalicMT;writing-mode:lr-tb;fill:#000000;fill-opacity:1;fill-rule:nonzero;stroke:none"
         transform="translate(13.440872,12.447917)"><tspan
           id="tspan150"
           y="0"
           x="0 8.1413574 17.031113 28.133545 31.465576 39.606934 44.29892 50.962982 54.66597 60.581635 66.497299 70.200287 75.38707 79.825439 83.157471 92.782623 99.446686 103.14967 106.85266 113.51672 118.70351 122.03554 128.22406 134.13972 140.05539 146.71945">ACM Projects; Dallas Texas</tspan></text>
<text
         id="text156"
         style="font-style:italic;font-variant:normal;font-size:13.33333302px;font-family:TimesNewRomanPS;-inkscape-font-specification:TimesNewRomanPS-ItalicMT;writing-mode:lr-tb;fill:#000000;fill-opacity:1;fill-rule:nonzero;stroke:none"
         transform="translate(486.66406,12.447917)"><tspan
           id="tspan154"
           y="0"
           x="0 6.6640625 12.579727 19.24379 22.946777 28.862442 38.487595 45.151657 51.067322">September</tspan></text>
<text
         id="text160"
         style="font-style:italic;font-variant:normal;font-size:13.33333302px;font-family:TimesNewRomanPS;-inkscape-font-specification:TimesNewRomanPS-ItalicMT;writing-mode:lr-tb;fill:#000000;fill-opacity:1;fill-rule:nonzero;stroke:none"
         transform="translate(546.25018,12.447917)"><tspan
           id="tspan158"
           y="0"
           x="0 6.6640625 13.328125 19.992188 26.65625 29.988281 34.426651 37.758682 46.648438 53.3125 59.228165 65.143829 74.768982 81.433044 87.348709 92.535492 95.867523 102.53159 109.19565 115.85971">2022 - November 2022</tspan></text>
</g><g
       transform="matrix(0.75,0,0,0.75,72,260.64148)"
       id="g162"><text
         id="text166"
         style="font-variant:normal;font-weight:normal;font-size:13.33333302px;font-family:ArialMT;-inkscape-font-specification:ArialMT;writing-mode:lr-tb;fill:#000000;fill-opacity:1;fill-rule:nonzero;stroke:none"
         transform="translate(-18,12.506511)"><tspan
           id="tspan164"
           y="0"
           x="0">●</tspan></text>
<text
         id="text170"
         style="font-variant:normal;font-weight:normal;font-size:13.33333302px;font-family:TimesNewRomanPSMT;-inkscape-font-specification:TimesNewRomanPSMT;writing-mode:lr-tb;fill:#000000;fill-opacity:1;fill-rule:nonzero;stroke:none"
         transform="translate(0,12.506511)"><tspan
           id="tspan168"
           y="0"
           x="0 4.4383698 11.102432 17.766495 21.469482 25.17247 31.088135 37.752197 41.084229 44.787216 51.451279 54.78331 58.486298 65.15036 68.853348 75.51741 78.849442 84.765106 88.097137 94.7612 99.19957 105.86363 112.52769 119.19176 122.52379 129.18785 133.62622 136.95825 141.39662 148.06068 154.72475 159.16312 162.49515 169.15921 172.8622 179.52626 185.44193 189.88029 193.21233 196.91531 202.83098 206.53397 212.44963 219.11369 222.81668 228.73235 235.39641 238.72844 242.43143 249.09549 255.75955 259.46252 266.12659 269.82959 276.49365 283.15771 289.07336 292.77637 297.96313 301.29517 304.99817 311.66223 314.99426 321.65833 327.57397 332.76074 336.46375 343.12781 349.79187 353.1239 359.03955 365.70361 372.36768 375.69971 381.61536 386.05371 391.96936 397.88501 401.58801 407.50366 410.83569">Invited to join a group of four other talented individuals to design and create a</tspan></text>
</g><g
       transform="matrix(0.75,0,0,0.75,72,273.91589)"
       id="g172"><text
         id="text176"
         style="font-variant:normal;font-weight:normal;font-size:13.33333302px;font-family:TimesNewRomanPSMT;-inkscape-font-specification:TimesNewRomanPSMT;writing-mode:lr-tb;fill:#000000;fill-opacity:1;fill-rule:nonzero;stroke:none"
         transform="translate(0,12.447917)"><tspan
           id="tspan174"
           y="0"
           x="0 5.1867828 11.850845 17.76651 21.469498 27.385162 31.08815 34.420181 44.787231 50.702896 57.366959 61.069946 66.985611 70.317642 80.684692 87.348755 94.012817 97.715805 101.41879 107.33446 110.66649 116.58215 123.24622 129.91028 133.24231 139.90637 143.60936 149.52502 153.22801 157.66638 164.33044 168.76881 179.13586 182.4679 186.17088 192.83495 198.75061 202.4536 205.78563 211.70129 215.40428 219.10727 225.77133 235.39648 240.58327 243.9153 250.57936 257.24341 263.15906 266.49109 270.19409 276.85815 280.19019 285.37695 292.04102 297.95667 302.39502 308.31067 311.6427 317.55835 324.22241 330.88647 334.21851 340.13416 346.79822 350.50122 354.20422 360.11987 366.78394 373.448 377.88635 383.802 387.505 393.42065 396.75269 403.41675 410.08081 413.41284 423.77991 430.44397 435.63074 439.33374 445.24939">social media mobile app platform that allows one to share and collaborate on music.</tspan></text>
</g><g
       transform="matrix(0.75,0,0,0.75,72,287.13977)"
       id="g178"><text
         id="text182"
         style="font-variant:normal;font-weight:normal;font-size:13.33333302px;font-family:ArialMT;-inkscape-font-specification:ArialMT;writing-mode:lr-tb;fill:#000000;fill-opacity:1;fill-rule:nonzero;stroke:none"
         transform="translate(-18,12.506511)"><tspan
           id="tspan180"
           y="0"
           x="0">●</tspan></text>
<text
         id="text186"
         style="font-variant:normal;font-weight:normal;font-size:13.33333302px;font-family:TimesNewRomanPSMT;-inkscape-font-specification:TimesNewRomanPSMT;writing-mode:lr-tb;fill:#000000;fill-opacity:1;fill-rule:nonzero;stroke:none"
         transform="translate(0,12.506511)"><tspan
           id="tspan184"
           y="0"
           x="0 9.6251526 15.540817 22.20488 28.120544 31.823532 38.487595 45.151657 51.067322 57.731384 61.063416 64.766403 71.430466 74.762497 82.174973 85.87796 92.542023 96.24501 99.947998 105.86366 109.76817 113.1002 116.43224 126.05739 131.97305 136.41142 140.11441 143.44644 146.77847 154.19095 157.89394 162.33231 168.24797 174.91203 180.8277 186.01448 191.93015 195.26218 198.59421 204.50987 211.17393 217.838 220.43436 230.05951 236.72357 243.38763 247.826 254.49007 258.19305 264.85712 268.18915 275.60162 279.30463 285.96869 292.63275 296.33575 302.99982 306.33185 309.66388 313.36688 320.03094 323.73395 328.92072 332.25275 338.1684 344.83246 351.49652 355.19952 358.90253 364.81818 370.73383 374.43683 378.13983 384.80389 391.46796 394.79999 398.50299 403.68976 407.02179 410.72479 417.38885 420.72089 427.38495">Developed in Flutter, Dart, Firebase, and Android Studio, this application is to be</tspan></text>
</g><g
       transform="matrix(0.75,0,0,0.75,72,300.41418)"
       id="g188"><text
         id="text192"
         style="font-variant:normal;font-weight:normal;font-size:13.33333302px;font-family:TimesNewRomanPSMT;-inkscape-font-specification:TimesNewRomanPSMT;writing-mode:lr-tb;fill:#000000;fill-opacity:1;fill-rule:nonzero;stroke:none"
         transform="translate(0,12.447917)"><tspan
           id="tspan190"
           y="0"
           x="0 6.6640625 11.102432 17.018097 22.20488 28.120544 34.784607 38.487595 44.403259 51.067322 54.399353 58.102341 64.766403 68.098434 74.014099 77.34613 84.010193 89.925858 96.58992 102.50558 106.20857 109.5406 115.45627 122.12033 132.48738 138.40305 141.73508 151.36023 158.02429 164.68835 170.60402 180.97107 187.63513 193.5508 197.98917 201.3212 207.23686 213.90092 220.56499 223.89702 227.60001 234.26407 240.92813 245.3665 252.03056 258.69464 265.3587 272.02277 275.72577 282.38983 285.72186 289.42487 296.08893 302.75299 309.41705 315.3327 321.99677 325.3288 331.99286 338.65692 341.98895 345.69196 352.35602 359.02008 365.68414 370.87091 374.57391 379.01227 385.67633 389.00836 394.92401 401.58807 408.25214 414.16779 418.60614 422.30914 427.49591">presented to a panel come November and thoroughly judged by industry experts.</tspan></text>
</g><g
       transform="matrix(0.75,0,0,0.75,72,317.66272)"
       id="g194"><text
         id="text198"
         style="font-variant:normal;font-weight:bold;font-size:13.33333302px;font-family:TimesNewRomanPS;-inkscape-font-specification:TimesNewRomanPS-BoldMT;writing-mode:lr-tb;fill:#000000;fill-opacity:1;fill-rule:nonzero;stroke:none"
         transform="translate(-48,12.447917)"><tspan
           id="tspan196"
           y="0"
           x="0 9.6251526 17.037628 23.701691 27.404678 31.107666 37.771729 41.10376">Apollo -</tspan></text>
<text
         id="text202"
         style="font-style:italic;font-variant:normal;font-size:13.33333302px;font-family:TimesNewRomanPS;-inkscape-font-specification:TimesNewRomanPS-ItalicMT;writing-mode:lr-tb;fill:#000000;fill-opacity:1;fill-rule:nonzero;stroke:none"
         transform="translate(0.87416077,12.447917)"><tspan
           id="tspan200"
           y="0"
           x="0 9.6251526 16.289215 22.20488 28.120544 37.745697 45.158173 54.783325 58.115356 62.553726 70.695084 75.133453 78.465485 88.090637 94.7547 98.457687 102.16068 108.82474 114.01152 117.34355 123.53207 129.44774 135.3634 142.02747">HackUTD IX; Dallas Texas</tspan></text>
<text
         id="text206"
         style="font-style:italic;font-variant:normal;font-size:13.33333302px;font-family:TimesNewRomanPS;-inkscape-font-specification:TimesNewRomanPS-ItalicMT;writing-mode:lr-tb;fill:#000000;fill-opacity:1;fill-rule:nonzero;stroke:none"
         transform="translate(582.66406,12.447917)"><tspan
           id="tspan204"
           y="0"
           x="0 8.8897552 15.553818 21.469482 27.385147 37.0103 43.674362 49.590027">November</tspan></text>
<text
         id="text210"
         style="font-style:italic;font-variant:normal;font-size:13.33333302px;font-family:TimesNewRomanPS;-inkscape-font-specification:TimesNewRomanPS-ItalicMT;writing-mode:lr-tb;fill:#000000;fill-opacity:1;fill-rule:nonzero;stroke:none"
         transform="translate(640.77289,12.447917)"><tspan
           id="tspan208"
           y="0"
           x="0 6.6640625 13.328125 19.992188">2022</tspan></text>
</g><g
       transform="matrix(0.75,0,0,0.75,72,332.0365)"
       id="g212"><text
         id="text216"
         style="font-variant:normal;font-weight:normal;font-size:13.33333302px;font-family:ArialMT;-inkscape-font-specification:ArialMT;writing-mode:lr-tb;fill:#000000;fill-opacity:1;fill-rule:nonzero;stroke:none"
         transform="translate(-18,12.506511)"><tspan
           id="tspan214"
           y="0"
           x="0">●</tspan></text>
<text
         id="text220"
         style="font-variant:normal;font-weight:normal;font-size:13.33333302px;font-family:TimesNewRomanPSMT;-inkscape-font-specification:TimesNewRomanPSMT;writing-mode:lr-tb;fill:#000000;fill-opacity:1;fill-rule:nonzero;stroke:none"
         transform="translate(0,12.506511)"><tspan
           id="tspan218"
           y="0"
           x="0 9.6251526 15.540817 22.20488 28.120544 31.823532 38.487595 45.151657 51.067322 57.731384 61.063416 64.766403 71.430466 74.762497 80.678162 84.010193 90.674255 97.338318 100.67035 104.37334 108.07632 118.44337 124.35904 128.79741 133.23578 139.15144 149.51849 155.43416 158.76619 162.09822 168.01389 174.67795 181.34201 187.25768 193.92174 197.25377 200.95676 207.62082 210.95285 220.578 232.42885 240.57021 248.71156 252.04359 255.37563 264.26538 271.67786 279.09033 282.42236 285.75439 290.94116 296.85681 303.52087 309.43652 316.849 322.76465 327.203 330.90601 337.57007 341.27307 344.6051 347.93713 353.85278 360.51685 367.18091 370.51294 377.92542 384.58948 388.29248 394.95654 401.62061 408.28467 411.6167 414.94873 419.38708 422.71912 426.05115 431.9668 435.6698 442.33386 448.99792 455.66199 458.99402 468.61917 472.32214 476.02515">Developed in a 24 timeframe, coded in HMTL, CSS, JavaScript, and Python, I, along with</tspan></text>
</g><g
       transform="matrix(0.75,0,0,0.75,72,345.31091)"
       id="g222"><text
         id="text226"
         style="font-variant:normal;font-weight:normal;font-size:13.33333302px;font-family:TimesNewRomanPSMT;-inkscape-font-specification:TimesNewRomanPSMT;writing-mode:lr-tb;fill:#000000;fill-opacity:1;fill-rule:nonzero;stroke:none"
         transform="translate(0,12.447917)"><tspan
           id="tspan224"
           y="0"
           x="0 3.7029877 10.36705 14.80542 20.721085 26.636749 29.968781 36.632843 40.335831 46.999893 52.915558 57.353928 62.54071 65.872742 72.536804 78.452469 83.639252 87.342239 94.006302 100.67036 106.58603 113.25009 116.58212 122.49779 125.82982 135.45497 141.37064 148.0347 151.36673 157.28239 163.94646 170.61052 174.31351 178.01649 183.93216 189.84782 193.55081 197.2538 203.91786 210.58192 213.91396 217.61694 224.28101 230.19667 233.89966 237.23169 243.89575 247.59874 251.30173 255.00471 258.7077 264.62335 270.539 275.72577 279.0578 284.24457 287.94757 292.38593 299.04999 305.71405 312.37811 315.71014 320.1485 326.81256 331.25092 341.61798 344.95001 350.86566 355.06314 359.50153 363.20453 369.12018 372.82318 378.73883 385.40289 391.31854 397.9826 401.31464 407.23029 413.89435 420.55841 423.89044 428.3288 432.0318 438.69586 444.61151 451.27557 457.19122 460.89423 466.80988">three others designed a web application that utilizes strong form efficiency and financial</tspan></text>
</g><g
       transform="matrix(0.75,0,0,0.75,72,358.53479)"
       id="g228"><text
         id="text232"
         style="font-variant:normal;font-weight:normal;font-size:13.33333302px;font-family:TimesNewRomanPSMT;-inkscape-font-specification:TimesNewRomanPSMT;writing-mode:lr-tb;fill:#000000;fill-opacity:1;fill-rule:nonzero;stroke:none"
         transform="translate(0,12.447917)"><tspan
           id="tspan230"
           y="0"
           x="0 9.6251526 17.037628 21.475998 26.662781 29.994812 33.6978 40.361862 46.277527 49.980515 53.312546 59.22821 63.66658 69.582245 72.914276 78.829941 85.494003 89.196991 95.112656 98.444687 102.14767 108.81174 112.14377 118.80783 122.51082 129.17488 135.09055 138.42258 145.08664 151.0023 155.44067 160.62746 167.29152 173.95558 179.87125 183.57423 187.27722 193.19289 199.10855 205.77261 209.10464 213.54301 217.246 222.43279 229.09685 233.53522 240.19928 246.11494 251.30173 257.21741 263.88147 267.2135 273.12915 279.79321 286.45728 290.16028 296.07593 301.99158 305.32361 311.98767 318.65173 321.98376 325.68677 332.35083 339.01489 344.93054 350.11731 353.82031 357.52332 364.18738 370.85144 374.18347 377.88647 384.55054 387.88257 391.58557 398.24963 404.16528 407.49731 412.68408 416.38708 423.05115 428.9668 435.63086 438.96289 449.32996 455.24561 459.68396 466.34802 472.26367 475.96667">APIs that are able to give personalized risk-based advice on investing in the stock market.</tspan></text>
</g><g
       transform="matrix(0.75,0,0,0.75,72,375.78333)"
       id="g234"><text
         id="text238"
         style="font-variant:normal;font-weight:bold;font-size:13.33333302px;font-family:TimesNewRomanPS;-inkscape-font-specification:TimesNewRomanPS-BoldMT;writing-mode:lr-tb;fill:#000000;fill-opacity:1;fill-rule:nonzero;stroke:none"
         transform="translate(-48,12.447917)"><tspan
           id="tspan236"
           y="0"
           x="0 8.1413574 14.80542 20.721085 25.159454 29.597824 36.261887 39.964874 43.667862 50.331924 53.423065 66.015518 71.931183 79.343658 84.530441 88.233429 92.671799 98.587463 101.91949">Portfolio Website -</tspan></text>
<text
         id="text242"
         style="font-style:italic;font-variant:normal;font-size:13.33333302px;font-family:TimesNewRomanPS;-inkscape-font-specification:TimesNewRomanPS-ItalicMT;writing-mode:lr-tb;fill:#000000;fill-opacity:1;fill-rule:nonzero;stroke:none"
         transform="translate(61.930786,12.447917)"><tspan
           id="tspan240"
           y="0"
           x="0 6.6640625 10.36705 17.031113 22.946777 26.278809 34.420166 39.112152 45.776215 49.479202 55.394867 61.310532 65.013519 69.451889 72.78392 82.409073 89.073135 92.776123 96.479111 103.14317 108.32996 111.66199 114.99402 121.18254 127.09821 133.01387 139.67793">Side Project; Dallas, Texas</tspan></text>
<text
         id="text246"
         style="font-style:italic;font-variant:normal;font-size:13.33333302px;font-family:TimesNewRomanPS;-inkscape-font-specification:TimesNewRomanPS-ItalicMT;writing-mode:lr-tb;fill:#000000;fill-opacity:1;fill-rule:nonzero;stroke:none"
         transform="translate(595.99219,12.447917)"><tspan
           id="tspan244"
           y="0"
           x="0 6.6640625 13.328125 22.953278 32.57843 38.494095 43.680878 47.012909 53.676971 60.341034 67.005096">Summer 2022</tspan></text>
</g><g
       transform="matrix(0.75,0,0,0.75,72,389.0072)"
       id="g248"><text
         id="text252"
         style="font-variant:normal;font-weight:normal;font-size:13.33333302px;font-family:ArialMT;-inkscape-font-specification:ArialMT;writing-mode:lr-tb;fill:#000000;fill-opacity:1;fill-rule:nonzero;stroke:none"
         transform="translate(-18,12.506511)"><tspan
           id="tspan250"
           y="0"
           x="0">●</tspan></text>
<text
         id="text256"
         style="font-variant:normal;font-weight:normal;font-size:13.33333302px;font-family:TimesNewRomanPSMT;-inkscape-font-specification:TimesNewRomanPSMT;writing-mode:lr-tb;fill:#000000;fill-opacity:1;fill-rule:nonzero;stroke:none"
         transform="translate(0,12.506511)"><tspan
           id="tspan254"
           y="0"
           x="0 8.1413574 14.80542 21.469482 27.385147 34.04921 39.964874 45.880539 52.544601 55.876633 62.540695 68.45636 72.89473 78.081512 84.745575 91.409637 97.325302 101.02829 104.36032 109.5471 116.21117 119.91415 123.61714 127.32013 132.50691 135.83894 139.54193 146.20599 149.53802 159.16318 167.30453 179.15538 187.29674 190.62877 193.9608 202.85056 210.26303 217.67551 221.00754 224.33957 230.25523 236.9193 243.58336 246.91539 252.10217 258.01782 264.68188 270.59753 278.01001 283.92566 288.36401 292.06702 298.73108 302.43408 305.76611 312.43018 319.09424 322.42627 328.34192 335.00598 341.67004 346.1084 352.77246 356.47546 363.13953 369.05518 372.75818 376.46118 383.12524 389.78931 393.12134 403.4884 410.15247 413.4845 419.40015 423.59763 428.03601 434.70007 439.13843 442.84143 448.0282 451.36023 455.06323">Enhanced personal skills in HTML, CSS, and JavaScript by coordinating my efforts in</tspan></text>
</g><g
       transform="matrix(0.75,0,0,0.75,72,402.28162)"
       id="g258"><text
         id="text262"
         style="font-variant:normal;font-weight:normal;font-size:13.33333302px;font-family:TimesNewRomanPSMT;-inkscape-font-specification:TimesNewRomanPSMT;writing-mode:lr-tb;fill:#000000;fill-opacity:1;fill-rule:nonzero;stroke:none"
         transform="translate(0,12.447917)"><tspan
           id="tspan260"
           y="0"
           x="0 5.9156647 12.579727 19.24379 22.946777 29.61084 36.274902 39.606934 45.522598 52.186661 58.850723 62.182755 68.846817 74.762482 79.949265 83.652252 90.316315 96.980377 100.68336 107.34743 114.01149 117.34352 123.25919 126.59122 133.25528 139.91934 144.35771 148.0607 152.49907 159.16313 162.86612 166.56911 173.23317 176.5652 186.19035 192.10602 198.77008 203.95686 207.65985 211.36284 217.2785 220.61053 224.31352 230.97758 236.89325 240.59624 243.92827 249.84393 256.508 260.211 266.12665 269.82965 273.53265 278.71942 282.05145 287.9671 294.63116 300.54681 304.98517 311.64923 315.35223 322.0163 325.7193 332.38336 339.04742 342.37946 349.04352 353.48187 360.14594 364.58429 370.49994 375.68671 380.87347 384.57648 391.24054 397.9046 403.82025 407.52325 410.85529 416.77094 423.435 430.09906 436.76312 440.46613 443.79816 454.16522 460.08087">coding and designing a portfolio website that entails everything professional about me.</tspan></text>
</g><g
       transform="matrix(0.75,0,0,0.75,72,425.27966)"
       id="g264"><text
         id="text268"
         style="font-variant:normal;font-weight:bold;font-size:14.66666698px;font-family:TimesNewRomanPS;-inkscape-font-specification:TimesNewRomanPS-BoldMT;writing-mode:lr-tb;fill:#000000;fill-opacity:1;fill-rule:nonzero;stroke:none"
         transform="translate(-48,13.692708)"><tspan
           id="tspan266"
           y="0"
           x="0 14.65625 26.056351 36.640625 48.040726 51.704788 61.480392 72.064667 81.017288 90.792892 101.37717 107.0808 116.8564 127.44067 138.02495">WORK EXPERIENCE</tspan></text>
</g><g
       transform="matrix(0.75,0,0,0.75,72,437.92859)"
       id="g270"><text
         id="text274"
         style="font-variant:normal;font-size:9.33333302px;font-family:MS;-inkscape-font-specification:MS-PMincho;writing-mode:lr-tb;fill:#000000;fill-opacity:1;fill-rule:nonzero;stroke:none"
         transform="translate(-48,8.713542)"><tspan
           id="tspan272"
           y="0"
           x="0 9 18 27 36 45 54 63 72 81 90 99 108 117 126 135 144 153 162 171 180 189 198 207 216 225 234 243 252 261 270 279 288 297 306 315 324 333 342 351 360 369 378 387 396 405 414 423 432 441 450 459 468 477 486 495 504 513 522 531 540 549 558 567 576 585 594 603 612 621 630 639 648 657 666 675 684 693 702 711">￣￣￣￣￣￣￣￣￣￣￣￣￣￣￣￣￣￣￣￣￣￣￣￣￣￣￣￣￣￣￣￣￣￣￣￣￣￣￣￣￣￣￣￣￣￣￣￣￣￣￣￣￣￣￣￣￣￣￣￣￣￣￣￣￣￣￣￣￣￣￣￣￣￣￣￣￣￣￣￣</tspan></text>
</g><g
       transform="matrix(0.75,0,0,0.75,72,445.97791)"
       id="g276"><text
         id="text280"
         style="font-variant:normal;font-weight:bold;font-size:13.33333302px;font-family:TimesNewRomanPS;-inkscape-font-specification:TimesNewRomanPS-BoldMT;writing-mode:lr-tb;fill:#000000;fill-opacity:1;fill-rule:nonzero;stroke:none"
         transform="translate(-48,12.447917)"><tspan
           id="tspan278"
           y="0"
           x="0 9.6251526 17.037628 20.740616 26.656281 34.068756 38.507126 46.648483 50.351471 54.054459 58.492828 67.382309 70.71434">Chick-Fil-A -</tspan></text>
<text
         id="text284"
         style="font-style:italic;font-variant:normal;font-size:13.33333302px;font-family:TimesNewRomanPS;-inkscape-font-specification:TimesNewRomanPS-ItalicMT;writing-mode:lr-tb;fill:#000000;fill-opacity:1;fill-rule:nonzero;stroke:none"
         transform="translate(31.220413,12.447917)"><tspan
           id="tspan282"
           y="0"
           x="0 6.1885223 12.104187 18.76825 28.393402 31.725433 42.827866 48.74353 58.368683 65.032745 70.94841 76.135193 80.573563 83.905594 92.046951 97.233734 100.93672 106.85239 113.51645 120.18051 125.36729 134.25705 140.92111 147.58517 154.24924 157.58127 161.28426 164.61629 172.75764 178.67331 185.33737 190.52415 194.22714 200.8912 207.55527 214.21933">Team Member; Friendswood / Pearland,</tspan></text>
<text
         id="text288"
         style="font-style:italic;font-variant:normal;font-size:13.33333302px;font-family:TimesNewRomanPS;-inkscape-font-specification:TimesNewRomanPS-ItalicMT;writing-mode:lr-tb;fill:#000000;fill-opacity:1;fill-rule:nonzero;stroke:none"
         transform="translate(252.10381,12.447917)"><tspan
           id="tspan286"
           y="0"
           x="0 7.4124756">TX</tspan></text>
<text
         id="text292"
         style="font-style:italic;font-variant:normal;font-size:13.33333302px;font-family:TimesNewRomanPS;-inkscape-font-specification:TimesNewRomanPS-ItalicMT;writing-mode:lr-tb;fill:#000000;fill-opacity:1;fill-rule:nonzero;stroke:none"
         transform="translate(387.33203,12.447917)"><tspan
           id="tspan290"
           y="0"
           x="0 11.102432 17.766495 22.458481 28.374146 35.038208 38.370239 45.034302 51.698364 58.362427 65.026489 68.358521 72.79689 79.460953 85.376617 92.04068 95.743668 101.65933 104.99136 111.65543 118.31949 124.98355 131.64761 134.97964 138.68263 142.01466 153.1171 159.78116 165.69682 169.02885 175.69292 182.35698 189.02104 195.6851 199.01714 203.45551 206.78754 212.7032 219.36726 226.03133 232.69539 239.35945 244.54623 250.4619 253.79393 260.45801 267.12207 273.78613">March 2020 - July 2021 / May 2022 - January 2023</tspan></text>
</g><g
       transform="matrix(0.75,0,0,0.75,72,457.47693)"
       id="g294"><text
         id="text298"
         style="font-variant:normal;font-weight:normal;font-size:13.33333302px;font-family:ArialMT;-inkscape-font-specification:ArialMT;writing-mode:lr-tb;fill:#000000;fill-opacity:1;fill-rule:nonzero;stroke:none"
         transform="translate(-18,12.506511)"><tspan
           id="tspan296"
           y="0"
           x="0">●</tspan></text>
<text
         id="text302"
         style="font-variant:normal;font-weight:normal;font-size:13.33333302px;font-family:TimesNewRomanPSMT;-inkscape-font-specification:TimesNewRomanPSMT;writing-mode:lr-tb;fill:#000000;fill-opacity:1;fill-rule:nonzero;stroke:none"
         transform="translate(0,12.506511)"><tspan
           id="tspan300"
           y="0"
           x="0 9.6251526 15.540817 25.907867 32.57193 39.235992 44.422775 48.125763 52.564133 58.479797 62.182785 68.09845 74.762512 78.094543 84.010208 88.448578 95.11264 101.02831 104.73129 110.64696 114.34995 117.68198 123.59764 130.2617 140.62875 150.9958 157.65987 164.32393 168.02692 173.94258 179.85825 183.56123 187.26422 193.92828 200.59235 203.92438 209.11116 215.77522 219.47821 223.1812 226.88419 232.07097 235.403 245.02815 248.73114 252.43413 259.09821 262.43024 268.34589 275.00995 280.19672 283.89972 290.56378 300.93085 306.8465 311.28485 316.47162 319.80365 326.46771 330.17072 335.35748 341.27313 347.93719 353.12396 358.31073 362.01373 368.6778">Demonstrated crucial communication skills with customers discussing</tspan></text>
</g><g
       transform="matrix(0.75,0,0,0.75,72,470.75134)"
       id="g304"><text
         id="text308"
         style="font-variant:normal;font-weight:normal;font-size:13.33333302px;font-family:TimesNewRomanPSMT;-inkscape-font-specification:TimesNewRomanPSMT;writing-mode:lr-tb;fill:#000000;fill-opacity:1;fill-rule:nonzero;stroke:none"
         transform="translate(0,12.447917)"><tspan
           id="tspan306"
           y="0"
           x="0 6.6640625 12.579727 17.018097 20.721085 27.385147 34.04921 39.235992 42.568024 46.271011 52.935074 59.599136 63.302124 69.217789 74.404572 77.736603 82.923386 89.587448 95.503113 102.16718 105.49921 111.41487 116.60165 119.93369 123.63667 130.30074 136.2164 139.91939 144.35776 147.68979 154.35385 158.05684 164.7209 168.42389 175.08795 181.75201 185.08405 190.99971 197.66377 204.32784 210.2435 214.68187 218.38486 224.30052 230.96458 236.88025 242.79591 246.12794 256.495 259.82703 266.49109 273.15515 279.0708 283.50916 289.4248 293.12781 296.83081 300.16284 305.34961 311.26526 314.96826 318.67126 323.85803 328.29639 334.21204 340.12769 343.83069 347.53369 354.19775 360.86182">various topics such as their dining experience &amp; overall satisfaction.</tspan></text>
</g><g
       transform="matrix(0.75,0,0,0.75,72,483.97522)"
       id="g310"><text
         id="text314"
         style="font-variant:normal;font-weight:normal;font-size:13.33333302px;font-family:ArialMT;-inkscape-font-specification:ArialMT;writing-mode:lr-tb;fill:#000000;fill-opacity:1;fill-rule:nonzero;stroke:none"
         transform="translate(-18,12.506511)"><tspan
           id="tspan312"
           y="0"
           x="0">●</tspan></text>
<text
         id="text318"
         style="font-variant:normal;font-weight:normal;font-size:13.33333302px;font-family:TimesNewRomanPSMT;-inkscape-font-specification:TimesNewRomanPSMT;writing-mode:lr-tb;fill:#000000;fill-opacity:1;fill-rule:nonzero;stroke:none"
         transform="translate(0,12.506511)"><tspan
           id="tspan316"
           y="0"
           x="0 11.850845 17.76651 21.469498 28.13356 31.836548 37.752213 41.4552 48.119263 54.034927 60.69899 64.031021 69.946686 76.610748 80.313736 84.752106 90.66777 101.03482 106.95049 110.65347 117.31754 120.64957 127.31363 131.01662 137.68068 144.34474 147.67677 153.59244 160.2565 165.44328 169.14627 175.81033 186.17738 192.09305 196.53142 199.86345 205.05023 210.9659 215.40427 222.06833 225.77132 231.68698 237.60265 240.93468 246.12146 249.82445 255.74011 262.40417 269.06824 274.98389 279.42224 286.0863 291.27307 294.6051 301.26917 307.93323 312.37158 316.07458 322.73865">Maintained extremely high customer service standards during</tspan></text>
</g><g
       transform="matrix(0.75,0,0,0.75,72,497.24963)"
       id="g320"><text
         id="text324"
         style="font-variant:normal;font-weight:normal;font-size:13.33333302px;font-family:TimesNewRomanPSMT;-inkscape-font-specification:TimesNewRomanPSMT;writing-mode:lr-tb;fill:#000000;fill-opacity:1;fill-rule:nonzero;stroke:none"
         transform="translate(0,12.447917)"><tspan
           id="tspan322"
           y="0"
           x="0 6.6640625 10.36705 17.031113 23.695175 28.133545 31.836533 38.500595 42.203583 48.119247 54.78331 59.970093 63.67308 67.376068 73.17424 76.506271 79.838303 86.502365 90.205353 96.869415 103.53348 107.97185 114.63591 121.29997 125.00296 131.66702 142.03407 147.94974 151.28177 154.6138 159.05217 164.96783 170.15462 173.8576 178.29597 184.96004 190.8757 196.79137 202.70703 209.37109 212.70312 219.36719 226.03125 231.94691 236.38528 242.30095 246.00394 249.70692 256.37097 263.03503 268.2218">high-intensity, high-volume, fast-paced operations.</tspan></text>
</g><g
       transform="matrix(0.75,0,0,0.75,72,520.24768)"
       id="g326"><text
         id="text330"
         style="font-variant:normal;font-weight:bold;font-size:14.66666698px;font-family:TimesNewRomanPS;-inkscape-font-specification:TimesNewRomanPS-BoldMT;writing-mode:lr-tb;fill:#000000;fill-opacity:1;fill-rule:nonzero;stroke:none"
         transform="translate(-48,13.692708)"><tspan
           id="tspan328"
           y="0"
           x="0 11.400101 21.984375 33.384476 43.96875 54.553024 60.256653 70.032257 79.527985 89.303589 95.007217 106.40732 116.99159">ORGANIZATIONS</tspan></text>
</g><g
       transform="matrix(0.75,0,0,0.75,72,532.89661)"
       id="g332"><text
         id="text336"
         style="font-variant:normal;font-size:9.33333302px;font-family:MS;-inkscape-font-specification:MS-PMincho;writing-mode:lr-tb;fill:#000000;fill-opacity:1;fill-rule:nonzero;stroke:none"
         transform="translate(-48,8.713542)"><tspan
           id="tspan334"
           y="0"
           x="0 9 18 27 36 45 54 63 72 81 90 99 108 117 126 135 144 153 162 171 180 189 198 207 216 225 234 243 252 261 270 279 288 297 306 315 324 333 342 351 360 369 378 387 396 405 414 423 432 441 450 459 468 477 486 495 504 513 522 531 540 549 558 567 576 585 594 603 612 621 630 639 648 657 666 675 684 693 702 711">￣￣￣￣￣￣￣￣￣￣￣￣￣￣￣￣￣￣￣￣￣￣￣￣￣￣￣￣￣￣￣￣￣￣￣￣￣￣￣￣￣￣￣￣￣￣￣￣￣￣￣￣￣￣￣￣￣￣￣￣￣￣￣￣￣￣￣￣￣￣￣￣￣￣￣￣￣￣￣￣</tspan></text>
</g><g
       transform="matrix(0.75,0,0,0.75,72,540.94592)"
       id="g338"><text
         id="text342"
         style="font-variant:normal;font-weight:bold;font-size:13.33333302px;font-family:TimesNewRomanPS;-inkscape-font-specification:TimesNewRomanPS-BoldMT;writing-mode:lr-tb;fill:#000000;fill-opacity:1;fill-rule:nonzero;stroke:none"
         transform="translate(-48,12.447917)"><tspan
           id="tspan340"
           y="0"
           x="0 8.8897552 16.302231 22.217896 24.814255 34.439407 39.62619 44.812973 51.477036 57.3927 61.095688 67.75975 72.19812 75.901108 82.56517 89.977646 93.309677 97.748047 104.41211 110.08688 113.41891 123.04407 129.70813 140.81056 148.22304 155.63551 160.07388 163.77687 171.18935 177.85341 181.18544 193.76517 200.42923 206.34489 213.75737 217.46036 224.87283 230.7885 236.70416 243.36823 246.70026 256.32541 265.21515 274.8403 278.17233">The Association for Computing Machinery UTD -</tspan></text>
<text
         id="text346"
         style="font-style:italic;font-variant:normal;font-size:13.33333302px;font-family:TimesNewRomanPS;-inkscape-font-specification:TimesNewRomanPS-ItalicMT;writing-mode:lr-tb;fill:#000000;fill-opacity:1;fill-rule:nonzero;stroke:none"
         transform="translate(238.91931,12.447917)"><tspan
           id="tspan344"
           y="0"
           x="0 11.102432 17.018097 26.64325 33.307312 39.222977 44.40976">Member;</tspan></text>
<text
         id="text350"
         style="font-style:italic;font-variant:normal;font-size:13.33333302px;font-family:TimesNewRomanPS;-inkscape-font-specification:TimesNewRomanPS-ItalicMT;writing-mode:lr-tb;fill:#000000;fill-opacity:1;fill-rule:nonzero;stroke:none"
         transform="translate(291.09949,12.447917)"><tspan
           id="tspan348"
           y="0"
           x="0 9.6251526 16.289215 19.992203 23.69519 30.359253 35.546036 38.878067 42.210098 48.398621 54.314285 60.22995 66.894012">Dallas, Texas</tspan></text>
<text
         id="text354"
         style="font-style:italic;font-variant:normal;font-size:13.33333302px;font-family:TimesNewRomanPS;-inkscape-font-specification:TimesNewRomanPS-ItalicMT;writing-mode:lr-tb;fill:#000000;fill-opacity:1;fill-rule:nonzero;stroke:none"
         transform="translate(547.99219,12.447917)"><tspan
           id="tspan352"
           y="0"
           x="0 8.1413574 14.80542 21.469482 28.133545 33.320328 37.023315 40.355347 47.019409 53.683472 60.347534 67.011597 70.343628 74.781998 78.114029 86.255386 90.947372 96.863037 102.04982 107.96548 114.62955">August 2022 - Present</tspan></text>
</g><g
       transform="matrix(0.75,0,0,0.75,72,554.1698)"
       id="g356"><text
         id="text360"
         style="font-variant:normal;font-weight:normal;font-size:13.33333302px;font-family:ArialMT;-inkscape-font-specification:ArialMT;writing-mode:lr-tb;fill:#000000;fill-opacity:1;fill-rule:nonzero;stroke:none"
         transform="translate(-18,13.692708)"><tspan
           id="tspan358"
           y="0"
           x="0">●</tspan></text>
<text
         id="text364"
         style="font-variant:normal;font-weight:normal;font-size:13.33333302px;font-family:TimesNewRomanPSMT;-inkscape-font-specification:TimesNewRomanPSMT;writing-mode:lr-tb;fill:#000000;fill-opacity:1;fill-rule:nonzero;stroke:none"
         transform="translate(0,13.692708)"><tspan
           id="tspan362"
           y="0"
           x="0 8.1413574 14.80542 21.469482 27.385147 34.04921 39.964874 46.628937 49.960968 53.663956 60.328018 63.660049 70.324112 74.0271 79.213882 85.129547 91.79361 96.980392 102.16718 105.87016 112.53423 119.19829">Engaged in discussions</tspan></text>
<text
         id="text368"
         style="font-variant:normal;font-weight:normal;font-size:13.33333302px;font-family:TimesNewRomanPSMT;-inkscape-font-specification:TimesNewRomanPSMT;writing-mode:lr-tb;fill:#000000;fill-opacity:1;fill-rule:nonzero;stroke:none"
         transform="translate(128.04913,13.692708)"><tspan
           id="tspan366"
           y="0"
           x="0 4.4383698 10.354034 14.057022 19.972687 23.675674 27.378662 34.042725 40.706787 44.038818 47.741806 54.405869 57.7379 63.653564 70.317627 76.981689 80.684677 87.34874 94.012802 97.344833 103.2605 109.92456 115.84023 122.50429 126.20728 131.39406 134.72609 139.91287 146.57693 152.4926">relating to coding events such</tspan></text>
<text
         id="text372"
         style="font-variant:normal;font-weight:normal;font-size:13.33333302px;font-family:TimesNewRomanPSMT;-inkscape-font-specification:TimesNewRomanPSMT;writing-mode:lr-tb;fill:#000000;fill-opacity:1;fill-rule:nonzero;stroke:none"
         transform="translate(290.53784,13.692708)"><tspan
           id="tspan370"
           y="0"
           x="0 5.9156647 11.102448 14.434479 21.098541 27.014206 32.929871 39.593933 45.509598 49.212585 55.876648 62.54071 69.204773 74.391556 77.723587 81.426575 88.090637 91.422668 95.125656 101.78972">as hackathons in the</tspan></text>
</g><g
       transform="matrix(0.75,0,0,0.75,72,568.71606)"
       id="g374"><text
         id="text378"
         style="font-variant:normal;font-weight:normal;font-size:13.33333302px;font-family:TimesNewRomanPSMT;-inkscape-font-specification:TimesNewRomanPSMT;writing-mode:lr-tb;fill:#000000;fill-opacity:1;fill-rule:nonzero;stroke:none"
         transform="translate(0,12.447917)"><tspan
           id="tspan376"
           y="0"
           x="0 5.9156647 10.354034 16.269699 22.185364 25.517395 28.849426 34.765091 41.429153 48.093216 54.008881 57.711868 61.414856 67.330521 73.246185 79.910248 84.348618 88.786987 94.702652 98.40564 104.3213 108.02429 113.93996 120.60402 123.93605 127.63904 134.3031 140.96716 145.40553 152.0696 157.98526 168.35231 174.26797 180.93204 184.63503 189.82181 193.15384 196.48587 202.40154 209.0656 215.72966 219.06169 228.68684 235.35091 239.78928 246.45334 251.64012 258.3042 264.96826 271.63232 276.81909 280.15112 286.06677 292.73083 298.64648 302.34949 309.01355 314.9292 318.6322 325.29626 331.96033 335.29236 341.20801 345.64636 351.56201 357.47766 362.66443 365.99646 372.66052 377.09888 380.43091 386.34656 393.01062 403.37769 410.04175 416.70581 420.40881 424.11182 430.77588 437.43994">area, code/tech-related tournaments, and workshops analyzing areas of computing.</tspan></text>
</g><g
       transform="matrix(0.75,0,0,0.75,72,581.93994)"
       id="g380"><text
         id="text384"
         style="font-variant:normal;font-weight:normal;font-size:13.33333302px;font-family:ArialMT;-inkscape-font-specification:ArialMT;writing-mode:lr-tb;fill:#000000;fill-opacity:1;fill-rule:nonzero;stroke:none"
         transform="translate(-18,12.506511)"><tspan
           id="tspan382"
           y="0"
           x="0">●</tspan></text>
<text
         id="text388"
         style="font-variant:normal;font-weight:normal;font-size:13.33333302px;font-family:TimesNewRomanPSMT;-inkscape-font-specification:TimesNewRomanPSMT;writing-mode:lr-tb;fill:#000000;fill-opacity:1;fill-rule:nonzero;stroke:none"
         transform="translate(0,12.506511)"><tspan
           id="tspan386"
           y="0"
           x="0 7.2103729 13.126038 19.7901 26.454163 33.118225 36.821213 40.153244 46.817307 52.732971 58.648636 63.087006 68.273788 71.60582 75.308807 81.97287 87.888535 91.220566 100.84572 107.50978 111.94815 118.61221 122.3152 128.97926 133.41763 140.0817 146.74576 151.18413 157.09979 167.46684 177.83389 181.53688 188.20094 194.86501 198.19704 201.90002 207.81569 214.47975 221.14381 227.80788 233.72354 240.3876 246.30327 249.6353 253.33829 260.00235 265.91803 272.58209 275.91412 285.53928 291.45496 295.89331 301.80896 305.14099 308.84399 315.50806 319.21106 325.12671 329.56506 335.48071 340.66748 344.37048 350.28613 356.9502 360.28223 363.98523 370.64929 373.98132 377.31335 383.229 389.89307">Taught peers the work/programming language they were interested in, and</tspan></text>
</g><g
       transform="matrix(0.75,0,0,0.75,72,595.21436)"
       id="g390"><text
         id="text394"
         style="font-variant:normal;font-weight:normal;font-size:13.33333302px;font-family:TimesNewRomanPSMT;-inkscape-font-specification:TimesNewRomanPSMT;writing-mode:lr-tb;fill:#000000;fill-opacity:1;fill-rule:nonzero;stroke:none"
         transform="translate(0,12.447917)"><tspan
           id="tspan392"
           y="0"
           x="0 5.9156647 11.102448 14.805435 20.7211 27.385162 31.08815 34.791138 39.977921 46.641983 52.557648 59.22171 62.553741 72.920792 79.584854 83.287842 89.951904 95.867569 99.570557 103.27354 108.46033 112.16331 115.8663 121.78197 125.114 131.77806 138.44212 145.10619 151.77025 156.95703 160.28906 166.20473 172.12039 176.55876 183.22282 188.40961 193.59639 196.92842 200.63141 207.29547 213.21114 216.54317 222.45883 229.12289 239.48994 246.15401 252.81807 256.52106 260.22406 266.88812 273.55219 276.88422 282.79987 289.46393 299.83099 310.19806 316.86212 323.52618 327.22919 330.93219 337.59625 340.92828 346.84393 350.54694 353.87897 363.50412 371.64548 381.27063">established mutualistic bonds across the computing community at UTD.</tspan></text>
</g><g
       transform="matrix(0.75,0,0,0.75,72,612.46289)"
       id="g396"><text
         id="text400"
         style="font-variant:normal;font-weight:bold;font-size:13.33333302px;font-family:TimesNewRomanPS;-inkscape-font-specification:TimesNewRomanPS-BoldMT;writing-mode:lr-tb;fill:#000000;fill-opacity:1;fill-rule:nonzero;stroke:none"
         transform="translate(-48,12.447917)"><tspan
           id="tspan398"
           y="0"
           x="0 9.6251526 16.289215 27.391647 34.804123 42.216599 46.654968 52.570633 58.245407 61.577438 68.989914 74.905579 80.821243 88.233719 94.149384 97.852371 102.29074 108.9548 112.28683 122.65388 128.32866 134.99272 142.4052 149.81767 153.1497 162.77486 171.66461 181.28976 184.6218">Computer Security Group UTD -</tspan></text>
<text
         id="text404"
         style="font-style:italic;font-variant:normal;font-size:13.33333302px;font-family:TimesNewRomanPS;-inkscape-font-specification:TimesNewRomanPS-ItalicMT;writing-mode:lr-tb;fill:#000000;fill-opacity:1;fill-rule:nonzero;stroke:none"
         transform="translate(144.63309,12.447917)"><tspan
           id="tspan402"
           y="0"
           x="0 11.102432 17.018097 26.64325 33.307312 39.222977 44.40976 48.848129 52.180161 61.805313 68.469376 72.172363 75.875351 82.539413 87.726196 91.058228 94.390259 100.57878 106.49445 112.41011 119.07417">Member; Dallas, Texas</tspan></text>
<text
         id="text408"
         style="font-style:italic;font-variant:normal;font-size:13.33333302px;font-family:TimesNewRomanPS;-inkscape-font-specification:TimesNewRomanPS-ItalicMT;writing-mode:lr-tb;fill:#000000;fill-opacity:1;fill-rule:nonzero;stroke:none"
         transform="translate(547.99219,12.447917)"><tspan
           id="tspan406"
           y="0"
           x="0 8.1413574 14.80542 21.469482 28.133545 33.320328 37.023315 40.355347 47.019409 53.683472 60.347534 67.011597 70.343628 74.781998 78.114029 86.255386 90.947372 96.863037 102.04982 107.96548 114.62955">August 2022 - Present</tspan></text>
</g><g
       transform="matrix(0.75,0,0,0.75,72,625.68677)"
       id="g410"><text
         id="text414"
         style="font-variant:normal;font-weight:normal;font-size:13.33333302px;font-family:ArialMT;-inkscape-font-specification:ArialMT;writing-mode:lr-tb;fill:#000000;fill-opacity:1;fill-rule:nonzero;stroke:none"
         transform="translate(-18,12.506511)"><tspan
           id="tspan412"
           y="0"
           x="0">●</tspan></text>
<text
         id="text418"
         style="font-variant:normal;font-weight:normal;font-size:13.33333302px;font-family:TimesNewRomanPSMT;-inkscape-font-specification:TimesNewRomanPSMT;writing-mode:lr-tb;fill:#000000;fill-opacity:1;fill-rule:nonzero;stroke:none"
         transform="translate(0,12.506511)"><tspan
           id="tspan416"
           y="0"
           x="0 8.1413574 14.80542 21.469482 25.17247 31.836533 36.274902 42.190567 48.85463 52.186661 57.373444 61.076431 67.740494 74.404556 78.107544 84.023209 89.209991 92.542023 96.24501 102.90907 106.2411 112.15677 118.82083 129.18788 135.85194 142.51601 146.21899 149.92198 156.58604 163.25011 166.58214 171.76892 177.68459 183.60025 190.26431 194.70268 198.40567 202.10866 208.77272 212.10475 215.80774 222.4718 229.13586 232.83885 238.75452 243.9413 247.27333 252.46011 259.12418 265.03986 271.70392 275.03595 280.9516 286.13837 289.4704 296.13446 302.05011 305.75311 311.66876 315.00079 319.43915 325.3548 331.27045 337.93451 344.59857 350.51422 354.95258 360.75073 364.08276 367.41479 373.33044 379.99451 390.36157 397.02563 401.46399 408.12805 418.49512 422.19812 427.38489 433.30054">Explored studies in computing security topics such as data recovery, compromised</tspan></text>
</g><g
       transform="matrix(0.75,0,0,0.75,72,638.96118)"
       id="g420"><text
         id="text424"
         style="font-variant:normal;font-weight:normal;font-size:13.33333302px;font-family:TimesNewRomanPSMT;-inkscape-font-specification:TimesNewRomanPSMT;writing-mode:lr-tb;fill:#000000;fill-opacity:1;fill-rule:nonzero;stroke:none"
         transform="translate(0,12.447917)"><tspan
           id="tspan422"
           y="0"
           x="0 5.9156647 10.354034 16.269699 22.933762 28.849426 35.513489 39.216476 42.919464 48.835129 52.538116 57.724899 61.056931 64.388962 70.304626 76.968689 83.632751 86.964783 93.628845 97.331833 103.9959 107.32793 111.03091 116.94658 122.86224 129.52631 132.85834 136.19037 142.10603 147.29282 150.62485 160.25 166.16566 169.86865 173.57164 176.90367 182.81934 188.00612 191.33815 197.25381 203.91788 210.58194 215.02031 220.93597 225.37434 229.81271 233.5157 240.17976 246.84383 250.17586 259.80103 263.50403 267.20703 273.87109 277.20312 283.11877 289.03442 294.95007 301.61414 304.94617 311.61023 315.31323 321.97729 327.89294 332.3313 335.66333 342.32739 348.99146 354.9071 359.34546 362.67749 366.38049 373.04456 378.96021 382.29224 392.6593 398.57495 405.23901 411.90308 415.23511 424.86026 430.77594 437.44">credentials, and big tech, as well as conferring with each other over the many ways</tspan></text>
</g><g
       transform="matrix(0.75,0,0,0.75,72,652.18506)"
       id="g426"><text
         id="text430"
         style="font-variant:normal;font-weight:normal;font-size:13.33333302px;font-family:TimesNewRomanPSMT;-inkscape-font-specification:TimesNewRomanPSMT;writing-mode:lr-tb;fill:#000000;fill-opacity:1;fill-rule:nonzero;stroke:none"
         transform="translate(0,12.447917)"><tspan
           id="tspan428"
           y="0"
           x="0 3.7029877 10.36705 13.699081 20.363144 26.278809 29.981796 33.313828 37.016815 43.680878 47.383865 54.047928 57.379959 61.082947 67.747009 73.662674 76.994705 82.91037 89.574432 96.238495 102.15416 106.59253 109.92456 115.11134 121.02701 126.94267 133.60674 138.0451 141.74809 145.45108 152.11514 155.44717 161.36284 168.0269 174.69096 178.02299 184.68706 189.12543 192.82841 199.49248 205.40814 211.32381 217.98787 221.3199 225.75827 229.46126 235.37692 239.07991 245.74397">to get into the cyber security and privacy field.</tspan></text>
</g><g
       transform="matrix(0.75,0,0,0.75,72,675.18311)"
       id="g432"><text
         id="text436"
         style="font-variant:normal;font-weight:bold;font-size:14.66666698px;font-family:TimesNewRomanPS;-inkscape-font-specification:TimesNewRomanPS-BoldMT;writing-mode:lr-tb;fill:#000000;fill-opacity:1;fill-rule:nonzero;stroke:none"
         transform="translate(-48,13.692708)"><tspan
           id="tspan434"
           y="0"
           x="0 10.584274 21.168549 31.752823 37.456451 47.232056 52.935684 64.335785 74.920059 85.504333 94.470688 98.13475 103.83838 114.42265 123.37527 134.77538 145.35965 159.19292 168.68864 178.46425 184.16788 195.56798">ADDITIONAL INFORMATION</tspan></text>
</g><g
       transform="matrix(0.75,0,0,0.75,72,687.83203)"
       id="g438"><text
         id="text442"
         style="font-variant:normal;font-size:9.33333302px;font-family:MS;-inkscape-font-specification:MS-PMincho;writing-mode:lr-tb;fill:#000000;fill-opacity:1;fill-rule:nonzero;stroke:none"
         transform="translate(-48,8.713542)"><tspan
           id="tspan440"
           y="0"
           x="0 9 18 27 36 45 54 63 72 81 90 99 108 117 126 135 144 153 162 171 180 189 198 207 216 225 234 243 252 261 270 279 288 297 306 315 324 333 342 351 360 369 378 387 396 405 414 423 432 441 450 459 468 477 486 495 504 513 522 531 540 549 558 567 576 585 594 603 612 621 630 639 648 657 666 675 684 693 702 711">￣￣￣￣￣￣￣￣￣￣￣￣￣￣￣￣￣￣￣￣￣￣￣￣￣￣￣￣￣￣￣￣￣￣￣￣￣￣￣￣￣￣￣￣￣￣￣￣￣￣￣￣￣￣￣￣￣￣￣￣￣￣￣￣￣￣￣￣￣￣￣￣￣￣￣￣￣￣￣￣</tspan></text>
</g><g
       transform="matrix(0.75,0,0,0.75,72,695.88135)"
       id="g444"><text
         id="text448"
         style="font-variant:normal;font-weight:bold;font-size:13.33333302px;font-family:TimesNewRomanPS;-inkscape-font-specification:TimesNewRomanPS-BoldMT;writing-mode:lr-tb;fill:#000000;fill-opacity:1;fill-rule:nonzero;stroke:none"
         transform="translate(-48,12.447917)"><tspan
           id="tspan446"
           y="0"
           x="0 10.36705 14.070038 18.508408 28.875458 36.287933 43.700409">GitHub:</tspan></text>
<text
         id="text452"
         style="font-variant:normal;font-weight:normal;font-size:13.33333302px;font-family:TimesNewRomanPSMT;-inkscape-font-specification:TimesNewRomanPSMT;writing-mode:lr-tb;fill:#1155cc;fill-opacity:1;fill-rule:nonzero;stroke:none"
         transform="translate(16.798935,12.447917)"><tspan
           id="tspan450"
           y="0"
           x="0 6.6640625 10.36705 14.070038 20.7341 25.920883 29.623871 33.326859 37.029846 43.693909 47.396896 51.099884 57.763947 64.428009 71.092072 74.424103 80.339767 87.00383 97.37088 101.07387 104.77686 110.69252 121.05957 131.42662 137.34229 144.00635 147.70934 151.41232 157.32799 163.99205 167.69504 173.6107">https://github.com/iammaxlichter</tspan></text>
<text
         id="text456"
         style="font-variant:normal;font-weight:bold;font-size:13.33333302px;font-family:TimesNewRomanPS;-inkscape-font-specification:TimesNewRomanPS-BoldMT;writing-mode:lr-tb;fill:#000000;fill-opacity:1;fill-rule:nonzero;stroke:none"
         transform="translate(311.32422,12.447917)"><tspan
           id="tspan454"
           y="0"
           x="0 12.592453 19.256516 25.17218 32.584656 35.916687 44.806442 48.50943 52.212418 58.87648 62.579468 69.991943 73.694931 77.397919 81.100906 85.539276 92.203339">Work Eligibility:</tspan></text>
<text
         id="text460"
         style="font-variant:normal;font-weight:normal;font-size:13.33333302px;font-family:TimesNewRomanPSMT;-inkscape-font-specification:TimesNewRomanPSMT;writing-mode:lr-tb;fill:#000000;fill-opacity:1;fill-rule:nonzero;stroke:none"
         transform="translate(411.29797,12.447917)"><tspan
           id="tspan458"
           y="0"
           x="0 8.1413574 11.844345 15.547333 22.211395 25.914383 32.578445 36.281433 42.197098 45.529129 49.232117 55.896179 59.22821 68.853363 75.517426 79.955795 86.619858 89.951889 93.654877 100.31894 103.65097 107.35396 114.01802 119.93369 123.26572 132.89087 136.2229 143.63538 146.96741 150.29944 159.92459 163.62758 167.33057">Eligible to work in the U.S. with</tspan></text>
<text
         id="text464"
         style="font-variant:normal;font-weight:normal;font-size:13.33333302px;font-family:TimesNewRomanPSMT;-inkscape-font-specification:TimesNewRomanPSMT;writing-mode:lr-tb;fill:#000000;fill-opacity:1;fill-rule:nonzero;stroke:none"
         transform="translate(588.62463,12.447917)"><tspan
           id="tspan462"
           y="0"
           x="0 6.6640625 13.328125 16.660156 21.098526 27.014191 32.200974 35.903961 40.342331 44.045319 49.960983 53.663971 57.366959 64.031021 70.695084 75.881866">no restrictions.</tspan></text>
</g><g
       transform="matrix(0.75,0,0,0.75,72,707.38037)"
       id="g466"><text
         id="text470"
         style="font-variant:normal;font-weight:bold;font-size:13.33333302px;font-family:TimesNewRomanPS;-inkscape-font-specification:TimesNewRomanPS-BoldMT;writing-mode:lr-tb;fill:#000000;fill-opacity:1;fill-rule:nonzero;stroke:none"
         transform="translate(-48,12.447917)"><tspan
           id="tspan468"
           y="0"
           x="0 8.8897552 12.592743 20.005219 27.417694 33.333359 40.745834 45.932617 53.345093">LinkedIn:</tspan></text>
<text
         id="text474"
         style="font-variant:normal;font-weight:normal;font-size:13.33333302px;font-family:TimesNewRomanPSMT;-inkscape-font-specification:TimesNewRomanPSMT;writing-mode:lr-tb;fill:#1155cc;fill-opacity:1;fill-rule:nonzero;stroke:none"
         transform="translate(16.447525,12.447917)"><tspan
           id="tspan472"
           y="0"
           x="0 6.6640625 10.36705 14.070038 20.7341 25.920883 29.623871 33.326859 37.029846 46.654999 56.280151 65.039413 68.371445 72.074432 75.77742 82.441483 89.105545 95.02121 101.68527 105.38826 112.05232 115.38435 121.30002 127.96408 138.33113 142.03412 145.73711 152.40117 156.10416 159.80714 165.72281 176.08986 186.45691 192.37257 199.03664 202.73962 206.44261 212.35828 219.02234 222.72533 228.64099 233.07936">https://www.linkedin.com/in/iammaxlichter/</tspan></text>
<text
         id="text478"
         style="font-variant:normal;font-weight:bold;font-size:13.33333302px;font-family:TimesNewRomanPS;-inkscape-font-specification:TimesNewRomanPS-BoldMT;writing-mode:lr-tb;fill:#000000;fill-opacity:1;fill-rule:nonzero;stroke:none"
         transform="translate(311.32422,12.447917)"><tspan
           id="tspan476"
           y="0"
           x="0 9.6251526 15.540817 19.979187 25.894852 31.569626 37.485291 44.897766 50.813431 56.729095 61.915878">References:</tspan></text>
<text
         id="text482"
         style="font-variant:normal;font-weight:normal;font-size:13.33333302px;font-family:TimesNewRomanPSMT;-inkscape-font-specification:TimesNewRomanPSMT;writing-mode:lr-tb;fill:#000000;fill-opacity:1;fill-rule:nonzero;stroke:none"
         transform="translate(381.0105,12.447917)"><tspan
           id="tspan480"
           y="0"
           x="0 5.9156647 12.579727 18.495392 22.19838 25.901367 31.817032 38.481094 42.184082 48.099747 51.431778 58.09584 64.759903 71.423965 78.088028 81.420059 85.858429 91.774094 98.438156 105.10222 111.01788 116.20467">available upon request</tspan></text>
</g><g
       transform="matrix(0.75,0,0,0.75,72,87.868652)"
       id="g484"><path
         id="path486"
         style="fill:none;stroke:#1155cc;stroke-width:1;stroke-linecap:butt;stroke-linejoin:miter;stroke-miterlimit:10;stroke-dasharray:none;stroke-opacity:1"
         d="M 172,14.17513 H 317.33334" /><path
         id="path488"
         style="fill:none;stroke:#1155cc;stroke-width:1;stroke-linecap:butt;stroke-linejoin:miter;stroke-miterlimit:10;stroke-dasharray:none;stroke-opacity:1"
         d="M 324,14.17513 H 452" /></g><g
       transform="matrix(0.75,0,0,0.75,72,695.88135)"
       id="g490"><path
         id="path492"
         style="fill:none;stroke:#1155cc;stroke-width:1;stroke-linecap:butt;stroke-linejoin:miter;stroke-miterlimit:10;stroke-dasharray:none;stroke-opacity:1"
         d="M 17.333334,14.158203 H 194.66667" /></g><g
       transform="matrix(0.75,0,0,0.75,72,707.38037)"
       id="g494"><path
         id="path496"
         style="fill:none;stroke:#1155cc;stroke-width:1;stroke-linecap:butt;stroke-linejoin:miter;stroke-miterlimit:10;stroke-dasharray:none;stroke-opacity:1"
         d="M 16,13.492839 H 253.33333" /></g></g></svg>